<?xml version="1.0" encoding="utf-8"?>
<!-- Generator: Adobe Illustrator 15.0.0, SVG Export Plug-In . SVG Version: 6.00 Build 0)  -->
<!DOCTYPE svg PUBLIC "-//W3C//DTD SVG 1.1//EN" "http://www.w3.org/Graphics/SVG/1.1/DTD/svg11.dtd">
<svg version="1.1" xmlns="http://www.w3.org/2000/svg" xmlns:xlink="http://www.w3.org/1999/xlink" x="0px" y="0px" width="512px"
	 height="512px" viewBox="0 0 512 512" enable-background="new 0 0 512 512" xml:space="preserve">
<g id="Layer_1" display="none">
	<g display="inline" opacity="0.3">
		<line fill="none" stroke="#B35047" x1="48" y1="0" x2="48" y2="512"/>
		<line fill="none" stroke="#B35047" x1="80" y1="0" x2="80" y2="512"/>
		<line fill="none" stroke="#B35047" x1="112" y1="0" x2="112" y2="512"/>
		<line fill="none" stroke="#B35047" x1="144" y1="0" x2="144" y2="512"/>
		<line fill="none" stroke="#B35047" x1="176" y1="0" x2="176" y2="512"/>
		<line fill="none" stroke="#B35047" x1="208" y1="0" x2="208" y2="512"/>
		<line fill="none" stroke="#B35047" x1="240" y1="0" x2="240" y2="512"/>
		<line fill="none" stroke="#B35047" x1="272" y1="0" x2="272" y2="512"/>
		<line fill="none" stroke="#B35047" x1="304" y1="0" x2="304" y2="512"/>
		<line fill="none" stroke="#B35047" x1="336" y1="0" x2="336" y2="512"/>
		<line fill="none" stroke="#B35047" x1="368" y1="0" x2="368" y2="512"/>
		<line fill="none" stroke="#B35047" x1="400" y1="0" x2="400" y2="512"/>
		<line fill="none" stroke="#B35047" x1="432" y1="0" x2="432" y2="512"/>
		<line fill="none" stroke="#B35047" x1="464" y1="0" x2="464" y2="512"/>
		<line fill="none" stroke="#B35047" x1="496" y1="0" x2="496" y2="512"/>
		<line fill="none" stroke="#B35047" x1="0" y1="48" x2="512" y2="48"/>
		<line fill="none" stroke="#B35047" x1="0" y1="80" x2="512" y2="80"/>
		<line fill="none" stroke="#B35047" x1="0" y1="112" x2="512" y2="112"/>
		<line fill="none" stroke="#B35047" x1="0" y1="144" x2="512" y2="144"/>
		<line fill="none" stroke="#B35047" x1="0" y1="176" x2="512" y2="176"/>
		<line fill="none" stroke="#B35047" x1="0" y1="208" x2="512" y2="208"/>
		<line fill="none" stroke="#B35047" x1="0" y1="240" x2="512" y2="240"/>
		<line fill="none" stroke="#B35047" x1="0" y1="272" x2="512" y2="272"/>
		<line fill="none" stroke="#B35047" x1="0" y1="304" x2="512" y2="304"/>
		<line fill="none" stroke="#B35047" x1="0" y1="336" x2="512" y2="336"/>
		<line fill="none" stroke="#B35047" x1="0" y1="368" x2="512" y2="368"/>
		<line fill="none" stroke="#B35047" x1="0" y1="400" x2="512" y2="400"/>
		<line fill="none" stroke="#B35047" x1="0" y1="432" x2="512" y2="432"/>
		<line fill="none" stroke="#B35047" x1="0" y1="464" x2="512" y2="464"/>
		<line fill="none" stroke="#B35047" x1="0" y1="496" x2="512" y2="496"/>
		<line fill="none" stroke="#B35047" x1="0" y1="16" x2="512" y2="16"/>
		<line fill="none" stroke="#B35047" x1="16" y1="0" x2="16" y2="512"/>
	</g>
	<g display="inline">
		<line fill="none" stroke="#B35047" x1="32" y1="0" x2="32" y2="512"/>
		<line fill="none" stroke="#B35047" x1="64" y1="0" x2="64" y2="512"/>
		<line fill="none" stroke="#B35047" x1="96" y1="0" x2="96" y2="512"/>
		<line fill="none" stroke="#B35047" x1="128" y1="0" x2="128" y2="512"/>
		<line fill="none" stroke="#B35047" x1="160" y1="0" x2="160" y2="512"/>
		<line fill="none" stroke="#B35047" x1="192" y1="0" x2="192" y2="512"/>
		<line fill="none" stroke="#B35047" x1="224" y1="0" x2="224" y2="512"/>
		<line fill="none" stroke="#B35047" x1="256" y1="0" x2="256" y2="512"/>
		<line fill="none" stroke="#B35047" x1="288" y1="0" x2="288" y2="512"/>
		<line fill="none" stroke="#B35047" x1="320" y1="0" x2="320" y2="512"/>
		<line fill="none" stroke="#B35047" x1="352" y1="0" x2="352" y2="512"/>
		<line fill="none" stroke="#B35047" x1="384" y1="0" x2="384" y2="512"/>
		<line fill="none" stroke="#B35047" x1="416" y1="0" x2="416" y2="512"/>
		<line fill="none" stroke="#B35047" x1="448" y1="0" x2="448" y2="512"/>
		<line fill="none" stroke="#B35047" x1="480" y1="0" x2="480" y2="512"/>
		<line fill="none" stroke="#B35047" x1="0" y1="32" x2="512" y2="32"/>
		<line fill="none" stroke="#B35047" x1="0" y1="64" x2="512" y2="64"/>
		<line fill="none" stroke="#B35047" x1="0" y1="96" x2="512" y2="96"/>
		<line fill="none" stroke="#B35047" x1="0" y1="128" x2="512" y2="128"/>
		<line fill="none" stroke="#B35047" x1="0" y1="160" x2="512" y2="160"/>
		<line fill="none" stroke="#B35047" x1="0" y1="192" x2="512" y2="192"/>
		<line fill="none" stroke="#B35047" x1="0" y1="224" x2="512" y2="224"/>
		<line fill="none" stroke="#B35047" x1="0" y1="256" x2="512" y2="256"/>
		<line fill="none" stroke="#B35047" x1="0" y1="288" x2="512" y2="288"/>
		<line fill="none" stroke="#B35047" x1="0" y1="320" x2="512" y2="320"/>
		<line fill="none" stroke="#B35047" x1="0" y1="352" x2="512" y2="352"/>
		<line fill="none" stroke="#B35047" x1="0" y1="384" x2="512" y2="384"/>
		<line fill="none" stroke="#B35047" x1="0" y1="416" x2="512" y2="416"/>
		<line fill="none" stroke="#B35047" x1="0" y1="448" x2="512" y2="448"/>
		<line fill="none" stroke="#B35047" x1="0" y1="480" x2="512" y2="480"/>
		<rect fill="none" stroke="#B35047" width="512" height="512"/>
	</g>
</g>
<g id="Layer_3">
	<path d="M496,95.192h-81v62.666h-30.447v-62.09h-32V32c0-17.6-14.4-32-32-32h-129c-17.602,0-32,14.4-32,32v63.768h-31v96h255.619
		v128.856l32-33V159.192H447v288L65,448V160h31.173v255.858h191.891l33-32h-0.616l63.725-63.234l-0.17-32.405l-96.28-0.744v96.384
		H128.173v-225L97,158.369V96H16c-8.801,0-16,7.2-16,16v384c0,8.8,7.199,16,16,16l480-0.808c8.801,0,16-7.2,16-16v-384
		C512,102.393,504.801,95.192,496,95.192z M288.553,95.768h-64V64.825c0.018-0.019,0.036-0.039,0.057-0.057h63.885
		c0.021,0.018,0.041,0.038,0.059,0.057V95.768z"/>
</g>
</svg>
